<svg width="40" height="35" viewBox="0 0 40 35" fill="none" xmlns="http://www.w3.org/2000/svg">
<path d="M20.009 17.0846C22.332 17.0846 24.6041 16.9672 26.8255 16.7324C29.0467 16.4977 31.2499 16.1094 33.4352 15.5676C35.6204 15.0258 37.8087 14.2974 40 13.3823V11.9195C40 10.0654 39.539 8.68378 38.6171 7.77476C37.695 6.86575 36.306 6.41125 34.4501 6.41125H29.1155V4.98451C29.1155 3.28689 28.6814 2.03173 27.8133 1.21904C26.9452 0.406346 25.7028 0 24.0863 0H15.9138C14.3811 0 13.1627 0.406346 12.2587 1.21904C11.3546 2.03173 10.9026 3.28689 10.9026 4.98451V6.41125H5.55008C3.70604 6.41125 2.32001 6.86575 1.39201 7.77476C0.464003 8.68378 0 10.0654 0 11.9195V13.3823C2.20327 14.2974 4.39457 15.0258 6.57388 15.5676C8.7532 16.1094 10.9535 16.4977 13.1747 16.7324C15.3959 16.9672 17.674 17.0846 20.009 17.0846ZM13.6866 6.41125V4.78586C13.6866 4.09958 13.8782 3.56983 14.2614 3.1966C14.6446 2.82336 15.1834 2.63673 15.8779 2.63673H24.1221C24.8286 2.63673 25.3735 2.82336 25.7567 3.1966C26.1398 3.56983 26.3314 4.09958 26.3314 4.78586V6.41125H13.6866ZM5.55008 35H34.4501C36.306 35 37.695 34.5425 38.6171 33.6274C39.539 32.7124 40 31.3338 40 29.4918V16.3442C38.2519 16.9823 36.5306 17.518 34.8361 17.9515C33.1418 18.3849 31.4594 18.7311 29.789 18.99C28.1186 19.2488 26.4512 19.4384 24.7868 19.5589V21.0217C24.7868 22.334 24.1222 22.9901 22.7931 22.9901H17.207C15.8899 22.9901 15.2313 22.334 15.2313 21.0217V19.5589C13.5549 19.4384 11.8815 19.2488 10.2111 18.99C8.54065 18.7311 6.85827 18.3849 5.16391 17.9515C3.46955 17.518 1.74824 16.9823 0 16.3442V29.4918C0 31.3338 0.464003 32.7124 1.39201 33.6274C2.32001 34.5425 3.70604 35 5.55008 35Z" fill="url(#paint0_radial_48_231)"/>
<defs>
<radialGradient id="paint0_radial_48_231" cx="0" cy="0" r="1" gradientUnits="userSpaceOnUse" gradientTransform="translate(20 17.5) rotate(90) scale(32.5 37.1429)">
<stop stop-color="white"/>
<stop offset="1" stop-color="#2F2F2F"/>
</radialGradient>
</defs>
</svg>
