<svg width="40" height="29" viewBox="0 0 40 29" fill="none" xmlns="http://www.w3.org/2000/svg">
<path d="M6.94436 23.7365C6.44631 23.7365 6.04448 23.5836 5.73886 23.278C5.43324 22.9724 5.28043 22.5819 5.28043 22.1065V18.9655C5.28043 18.4786 5.43324 18.0853 5.73886 17.7854C6.04448 17.4854 6.44631 17.3354 6.94436 17.3354H11.1042C11.6022 17.3354 12.0041 17.4854 12.3097 17.7854C12.6153 18.0853 12.7681 18.4786 12.7681 18.9655V22.1065C12.7681 22.5819 12.6153 22.9724 12.3097 23.278C12.0041 23.5836 11.6022 23.7365 11.1042 23.7365H6.94436ZM0 10.6967V6.84248H39.9003V10.6967H0ZM5.33137 29H34.569C36.3461 29 37.6789 28.5613 38.5675 27.684C39.456 26.8068 39.9003 25.4966 39.9003 23.7535V5.26345C39.9003 3.52028 39.456 2.20725 38.5675 1.32435C37.6789 0.441451 36.3461 0 34.569 0H5.33137C3.55424 0 2.2214 0.438621 1.33284 1.31586C0.444281 2.19311 0 3.50897 0 5.26345V23.7535C0 25.4966 0.444281 26.8068 1.33284 27.684C2.2214 28.5613 3.55424 29 5.33137 29Z" fill="url(#paint0_radial_48_271)"/>
<defs>
<radialGradient id="paint0_radial_48_271" cx="0" cy="0" r="1" gradientUnits="userSpaceOnUse" gradientTransform="translate(19.9502 14.5) rotate(90) scale(26.9286 37.0503)">
<stop stop-color="white"/>
<stop offset="1" stop-color="#2F2F2F"/>
</radialGradient>
</defs>
</svg>
