<svg width="32" height="35" viewBox="0 0 32 35" fill="none" xmlns="http://www.w3.org/2000/svg">
<path d="M31.3125 26.25C29.3971 26.25 29.1756 24.0625 26.2197 24.0625C23.2509 24.0625 23.0188 26.25 21.1099 26.25C19.2167 26.25 18.9597 24.0625 16 24.0625C13.0713 24.0625 12.7722 26.25 10.9072 26.25C8.98305 26.25 8.77428 24.0625 5.79736 24.0625C2.82052 24.0625 2.60819 26.25 0.6875 26.25V20.7812C0.6875 18.9697 2.15723 17.5 3.96875 17.5H5.0625V7.65625H9.4375V17.5H13.8125V7.65625H18.1875V17.5H22.5625V7.65625H26.9375V17.5H28.0312C29.8428 17.5 31.3125 18.9697 31.3125 20.7812V26.25ZM31.3125 35H0.6875V28.4375C3.65129 28.4375 3.88446 26.25 5.79736 26.25C7.70808 26.25 7.9338 28.4375 10.9072 28.4375C13.8359 28.4375 14.135 26.25 16 26.25C17.9242 26.25 18.1329 28.4375 21.1099 28.4375C24.0737 28.4375 24.3068 26.25 26.2197 26.25C28.0988 26.25 28.3561 28.4375 31.3125 28.4375V35ZM7.25 6.5625C6.03662 6.5625 5.0625 5.58838 5.0625 4.375C5.0625 2.25586 7.25 2.80273 7.25 0C8.07031 0 9.4375 2.0166 9.4375 3.82812C9.4375 5.63965 8.46338 6.5625 7.25 6.5625ZM16 6.5625C14.7866 6.5625 13.8125 5.58838 13.8125 4.375C13.8125 2.25586 16 2.80273 16 0C16.8203 0 18.1875 2.0166 18.1875 3.82812C18.1875 5.63965 17.2134 6.5625 16 6.5625ZM24.75 6.5625C23.5366 6.5625 22.5625 5.58838 22.5625 4.375C22.5625 2.25586 24.75 2.80273 24.75 0C25.5703 0 26.9375 2.0166 26.9375 3.82812C26.9375 5.63965 25.9634 6.5625 24.75 6.5625Z" fill="url(#paint0_radial_48_263)"/>
<defs>
<radialGradient id="paint0_radial_48_263" cx="0" cy="0" r="1" gradientUnits="userSpaceOnUse" gradientTransform="translate(16 17.5) rotate(90) scale(32.5 28.4375)">
<stop stop-color="white"/>
<stop offset="1" stop-color="#2F2F2F"/>
</radialGradient>
</defs>
</svg>
