<svg width="11" height="11" viewBox="0 0 11 11" fill="none" xmlns="http://www.w3.org/2000/svg">
<path fill-rule="evenodd" clip-rule="evenodd" d="M2.52032 0.0428884C2.40028 0.106174 2.2991 0.20984 2.24676 0.323149C2.20458 0.414458 2.1989 0.498063 2.19841 1.03803L2.19784 1.64951L1.73993 1.66016C1.3261 1.6698 1.26527 1.6772 1.10808 1.73694C0.623231 1.92126 0.27119 2.27404 0.0872492 2.7599C0.0276298 2.91742 0.0202515 2.97838 0.0106288 3.39307L0 3.85194H5.5H11L10.9894 3.39307C10.9797 2.97838 10.9724 2.91742 10.9128 2.7599C10.7279 2.27169 10.3791 1.92217 9.89192 1.73694C9.73473 1.6772 9.6739 1.6698 9.26007 1.66016L8.80216 1.64951V1.04367C8.80216 0.554447 8.79444 0.419318 8.76209 0.341711C8.67626 0.1358 8.47697 0 8.2606 0C8.03293 0 7.86829 0.0980305 7.76128 0.297297C7.70956 0.393596 7.70517 0.443723 7.69764 1.02761L7.68951 1.65452H5.5H3.31049L3.30236 1.02761C3.29483 0.443723 3.29044 0.393596 3.23872 0.297297C3.16901 0.167495 3.08808 0.0912056 2.9658 0.0400188C2.84365 -0.0111422 2.62003 -0.00969446 2.52032 0.0428884ZM0.0108094 7.34841L0.0179039 9.73326L0.0855723 9.90755C0.27573 10.3974 0.619283 10.7416 1.10808 10.9322L1.28201 11H5.4742H9.66639L9.84698 10.9427C10.3421 10.7855 10.753 10.3786 10.9247 9.87544L10.9821 9.7074L10.9891 7.33549L10.9961 4.96357H5.49987H0.00371495L0.0108094 7.34841Z" fill="white"/>
</svg>
