<svg width="42" height="27" viewBox="0 0 42 27" fill="none" xmlns="http://www.w3.org/2000/svg">
<path d="M0 24.8773C0 25.2569 0.115978 25.5627 0.347935 25.7946C0.579892 26.0266 0.885653 26.1426 1.26522 26.1426H40.5028C40.8823 26.1426 41.1855 26.0266 41.4122 25.7946C41.6388 25.5627 41.7521 25.2569 41.7521 24.8773V1.2494C41.7521 0.869837 41.6388 0.566712 41.4122 0.340027C41.1855 0.113342 40.8823 0 40.5028 0H1.26522C0.885653 0 0.579892 0.113342 0.347935 0.340027C0.115978 0.566712 0 0.869837 0 1.2494V24.8773ZM2.89419 22.2837V3.85891C2.89419 3.21576 3.21049 2.89419 3.8431 2.89419H37.9091C38.5417 2.89419 38.8579 3.21576 38.8579 3.85891V22.2837C38.8579 22.9269 38.5417 23.2484 37.9091 23.2484H3.8431C3.21049 23.2484 2.89419 22.9269 2.89419 22.2837ZM4.53896 21.2241C4.53896 21.477 4.66549 21.6035 4.91854 21.6035H17.286C16.4531 20.7495 15.802 19.5871 15.3329 18.1163C14.8637 16.6455 14.6291 14.9559 14.6291 13.0476C14.6291 11.1392 14.861 9.45486 15.3249 7.99459C15.7889 6.53432 16.432 5.38244 17.2544 4.53896H4.91854C4.66549 4.53896 4.53896 4.66549 4.53896 4.91854V21.2241ZM16.5269 13.0476C16.5269 14.6923 16.7035 16.1316 17.0567 17.3652C17.4099 18.5987 17.9108 19.5608 18.5592 20.2514C19.2076 20.942 19.9588 21.2872 20.8129 21.2872C21.6985 21.2872 22.4761 20.942 23.1456 20.2514C23.8151 19.5608 24.3343 18.5987 24.7034 17.3652C25.0724 16.1316 25.2569 14.6923 25.2569 13.0476C25.2569 11.4028 25.0724 9.96359 24.7034 8.73C24.3343 7.49642 23.8151 6.53696 23.1456 5.85163C22.4761 5.16631 21.6985 4.82365 20.8129 4.82365C19.9588 4.82365 19.2076 5.16631 18.5592 5.85163C17.9108 6.53696 17.4099 7.49642 17.0567 8.73C16.7035 9.96359 16.5269 11.4028 16.5269 13.0476ZM24.4345 21.6035H36.8336C37.0867 21.6035 37.2132 21.477 37.2132 21.2241V4.91854C37.2132 4.66549 37.0867 4.53896 36.8336 4.53896H24.4504C25.2938 5.38244 25.9528 6.53432 26.4273 7.99459C26.9017 9.45486 27.1389 11.1392 27.1389 13.0476C27.1389 14.9559 26.8991 16.6455 26.4194 18.1163C25.9396 19.5871 25.278 20.7495 24.4345 21.6035Z" fill="url(#paint0_radial_48_256)"/>
<defs>
<radialGradient id="paint0_radial_48_256" cx="0" cy="0" r="1" gradientUnits="userSpaceOnUse" gradientTransform="translate(20.8761 13.0713) rotate(90) scale(24.2753 38.7698)">
<stop stop-color="white"/>
<stop offset="1" stop-color="#2F2F2F"/>
</radialGradient>
</defs>
</svg>
