<svg width="27" height="35" viewBox="0 0 27 35" fill="none" xmlns="http://www.w3.org/2000/svg">
<path d="M5.07457 35H22.5068C23.8539 35 24.9044 34.6079 25.6584 33.8238C26.4124 33.0397 26.7893 31.8735 26.7893 30.3254V13.2249C26.7893 11.6667 26.3922 10.498 25.598 9.71888C24.8038 8.93975 23.6226 8.55019 22.0543 8.55019H5.07457C3.49622 8.55019 2.31246 8.93975 1.5233 9.71888C0.734125 10.498 0.339539 11.6667 0.339539 13.2249V30.3254C0.339539 31.8835 0.734125 33.0522 1.5233 33.8314C2.31246 34.6105 3.49622 35 5.07457 35ZM3.62692 6.12237H23.4868C23.3763 5.43876 23.14 4.91348 22.7781 4.54653C22.4162 4.17959 21.8583 3.99612 21.1044 3.99612H6.00952C5.25552 3.99612 4.69757 4.17959 4.33566 4.54653C3.97375 4.91348 3.7375 5.43876 3.62692 6.12237ZM6.25078 1.94528H20.8781C20.8279 1.30188 20.6193 0.816818 20.2523 0.490091C19.8854 0.163364 19.3551 0 18.6613 0H8.45243C7.75876 0 7.22845 0.163364 6.86151 0.490091C6.49458 0.816818 6.291 1.30188 6.25078 1.94528ZM11.8303 32.6024C11.6996 32.5722 11.5614 32.4591 11.4156 32.263C11.2698 32.067 11.1969 31.793 11.1969 31.4412C11.1969 30.7878 11.3553 30.1268 11.6719 29.4582C11.9886 28.7896 12.446 28.1714 13.0442 27.6035C13.6424 27.0354 14.3662 26.5805 15.2157 26.2387C16.0652 25.897 17.0227 25.7261 18.0883 25.7261C19.4556 25.7261 20.7022 26.0377 21.8281 26.6609C22.9541 27.2842 23.8036 28.0835 24.3766 29.0587V30.2197C24.3766 31.0039 24.1504 31.597 23.6981 31.9991C23.2456 32.4013 22.6877 32.6024 22.0242 32.6024H11.8303ZM18.0883 24.0522C17.4952 24.0522 16.9448 23.8888 16.4371 23.5621C15.9294 23.2353 15.5198 22.7955 15.2081 22.2426C14.8965 21.6897 14.7407 21.0714 14.7407 20.3877C14.7407 19.7042 14.8965 19.0884 15.2081 18.5405C15.5198 17.9926 15.932 17.5603 16.4447 17.2437C16.9574 16.927 17.5103 16.7687 18.1034 16.7687C18.7066 16.7687 19.2595 16.9245 19.7622 17.2361C20.2648 17.5477 20.667 17.9725 20.9686 18.5104C21.2701 19.0482 21.4209 19.664 21.4209 20.3576C21.4209 21.0513 21.2676 21.6771 20.9611 22.235C20.6544 22.793 20.2498 23.2353 19.7472 23.5621C19.2445 23.8888 18.6916 24.0522 18.0883 24.0522ZM5.1198 32.6024C4.36582 32.6024 3.78777 32.4013 3.38565 31.9991C2.98352 31.597 2.78245 31.0039 2.78245 30.2197V28.742C3.2449 27.9377 3.96621 27.2289 4.94639 26.6157C5.92658 26.0024 7.09526 25.6958 8.45243 25.6958C9.11594 25.6958 9.7141 25.7712 10.2469 25.922C10.7797 26.0728 11.2874 26.304 11.77 26.6157C11.2774 26.9776 10.8426 27.435 10.4656 27.988C10.0886 28.5409 9.79201 29.1214 9.57587 29.7296C9.35972 30.3378 9.25164 30.9083 9.25164 31.4412C9.25164 31.9238 9.3371 32.3108 9.508 32.6024H5.1198ZM8.45243 24.2633C7.67833 24.2633 6.99974 23.9516 6.41667 23.3283C5.83358 22.705 5.54204 21.9409 5.54204 21.0361C5.54204 20.1414 5.83358 19.395 6.41667 18.7968C6.99974 18.1987 7.67833 17.8996 8.45243 17.8996C9.23657 17.8996 9.91767 18.1962 10.4957 18.7894C11.0738 19.3824 11.3628 20.1264 11.3628 21.0212C11.3628 21.9359 11.0738 22.705 10.4957 23.3283C9.91767 23.9516 9.23657 24.2633 8.45243 24.2633Z" fill="url(#paint0_radial_48_248)"/>
<defs>
<radialGradient id="paint0_radial_48_248" cx="0" cy="0" r="1" gradientUnits="userSpaceOnUse" gradientTransform="translate(13.5644 17.5) rotate(90) scale(32.5 24.5605)">
<stop stop-color="white"/>
<stop offset="1" stop-color="#2F2F2F"/>
</radialGradient>
</defs>
</svg>
