<svg width="32" height="35" viewBox="0 0 32 35" fill="none" xmlns="http://www.w3.org/2000/svg">
<path d="M16.0303 34.984C18.4306 34.984 20.568 34.7955 22.4425 34.4184C24.3169 34.0415 25.902 33.5317 27.1977 32.8891C28.4935 32.2466 29.476 31.5191 30.145 30.7066C30.8141 29.8942 31.1486 29.0472 31.1486 28.1656C31.1486 27.3266 30.9123 26.5539 30.4398 25.8477C29.9672 25.1414 29.3326 24.5122 28.5361 23.9599C27.7394 23.4077 26.8553 22.9377 25.8835 22.55C24.9117 22.1624 23.924 21.8651 22.9204 21.658C21.9167 21.4508 20.9742 21.3472 20.0927 21.3472V23.6731C20.868 23.6838 21.7044 23.7927 22.6018 23.9997C23.4993 24.2068 24.3515 24.4909 25.1586 24.8521C25.9658 25.2132 26.6296 25.6433 27.1501 26.1425C27.6705 26.6416 27.9307 27.1886 27.9307 27.7832C27.9307 28.4736 27.6333 29.1029 27.0385 29.6712C26.4437 30.2393 25.6127 30.7331 24.5454 31.1527C23.478 31.5722 22.2194 31.8961 20.7697 32.1245C19.32 32.3528 17.7402 32.4669 16.0303 32.4669C14.3098 32.4669 12.7247 32.3528 11.275 32.1245C9.82527 31.8961 8.56674 31.5749 7.49937 31.1607C6.43201 30.7465 5.60361 30.2526 5.01416 29.6792C4.42473 29.1056 4.13001 28.4736 4.13001 27.7832C4.13001 27.1886 4.38755 26.6416 4.90265 26.1425C5.41775 25.6433 6.07888 25.2132 6.88605 24.8521C7.6932 24.4909 8.54815 24.2068 9.4509 23.9997C10.3536 23.7927 11.1874 23.6838 11.952 23.6731V21.3472C11.0811 21.3472 10.1439 21.4508 9.14024 21.658C8.13661 21.8651 7.14889 22.1624 6.17711 22.55C5.20534 22.9377 4.32118 23.4077 3.52464 23.9599C2.7281 24.5122 2.09087 25.1414 1.61294 25.8477C1.13502 26.5539 0.896057 27.3266 0.896057 28.1656C0.896057 29.0472 1.23326 29.8942 1.90766 30.7066C2.58206 31.5191 3.56712 32.2466 4.86283 32.8891C6.15853 33.5317 7.74365 34.0415 9.61817 34.4184C11.4927 34.7955 13.6301 34.984 16.0303 34.984Z" fill="url(#paint0_radial_48_287)"/>
<path fill-rule="evenodd" clip-rule="evenodd" d="M10.6218 8.60264C10.2342 7.8061 10.0403 6.94052 10.0403 6.00591C10.0403 4.90138 10.3085 3.89508 10.8448 2.98702C11.3812 2.07897 12.1007 1.35412 13.0035 0.812471C13.9062 0.270824 14.9098 0 16.0144 0C17.1296 0 18.1385 0.270824 19.0412 0.812471C19.9439 1.35412 20.6635 2.07897 21.1999 2.98702C21.7362 3.89508 22.0044 4.90138 22.0044 6.00591C22.0044 6.94052 21.8079 7.8061 21.4149 8.60264C21.022 9.39917 20.4856 10.0789 19.8059 10.6418C19.1262 11.2047 18.3562 11.5923 17.496 11.8047V21.889C17.496 23.0679 17.4482 24.1086 17.3526 25.0113C17.257 25.9141 17.1375 26.6735 16.9941 27.2894C16.8507 27.9054 16.6914 28.3701 16.5162 28.6834C16.341 28.9967 16.1737 29.1534 16.0144 29.1534C15.8551 29.1534 15.6904 28.9967 15.5205 28.6834C15.3506 28.3701 15.1913 27.9054 15.0426 27.2894C14.8939 26.6735 14.7718 25.9141 14.6762 25.0113C14.5806 24.1086 14.5328 23.0679 14.5328 21.889V11.8047C13.6726 11.5923 12.9026 11.2047 12.2229 10.6418C11.5431 10.0789 11.0095 9.39917 10.6218 8.60264ZM12.884 5.71119C13.2929 6.12008 13.7681 6.32452 14.3098 6.32452C14.8727 6.32452 15.3559 6.12008 15.7595 5.71119C16.1631 5.3023 16.3649 4.82172 16.3649 4.26945C16.3649 3.71719 16.1631 3.23926 15.7595 2.83568C15.3559 2.4321 14.8727 2.23031 14.3098 2.23031C13.7681 2.23031 13.2929 2.4321 12.884 2.83568C12.4751 3.23926 12.2706 3.71719 12.2706 4.26945C12.2706 4.82172 12.4751 5.3023 12.884 5.71119Z" fill="url(#paint1_radial_48_287)"/>
<defs>
<radialGradient id="paint0_radial_48_287" cx="0" cy="0" r="1" gradientUnits="userSpaceOnUse" gradientTransform="translate(16.0223 17.492) rotate(90) scale(32.4852 28.0917)">
<stop stop-color="white"/>
<stop offset="1" stop-color="#2F2F2F"/>
</radialGradient>
<radialGradient id="paint1_radial_48_287" cx="0" cy="0" r="1" gradientUnits="userSpaceOnUse" gradientTransform="translate(16.0223 17.492) rotate(90) scale(32.4852 28.0917)">
<stop stop-color="white"/>
<stop offset="1" stop-color="#2F2F2F"/>
</radialGradient>
</defs>
</svg>
