<svg width="15" height="25" viewBox="0 0 15 25" fill="none" xmlns="http://www.w3.org/2000/svg">
<path d="M14.1154 12.4766C14.1154 12.6586 14.0818 12.8287 14.0147 12.9868C13.9477 13.145 13.847 13.2911 13.7129 13.4252L2.31436 24.5651C2.05563 24.8238 1.7442 24.9531 1.38006 24.9531C1.13091 24.9531 0.908111 24.8956 0.711663 24.7806C0.515224 24.6657 0.357114 24.51 0.237331 24.3136C0.117549 24.1171 0.0576572 23.8943 0.0576572 23.6452C0.0576572 23.2906 0.187022 22.9791 0.445751 22.7108L10.91 12.4766L0.445751 2.24234C0.187022 1.97402 0.0576572 1.66258 0.0576572 1.30803C0.0576572 1.05888 0.117549 0.836084 0.237331 0.639639C0.357114 0.443196 0.515224 0.287479 0.711663 0.172488C0.908111 0.0574959 1.13091 0 1.38006 0C1.7442 0 2.05563 0.124574 2.31436 0.373722L13.7129 11.5279C13.847 11.662 13.9477 11.8082 14.0147 11.9663C14.0818 12.1244 14.1154 12.2945 14.1154 12.4766Z" fill="white" fill-opacity="0.85"/>
</svg>
