<svg width="33" height="35" viewBox="0 0 33 35" fill="none" xmlns="http://www.w3.org/2000/svg">
<path d="M2.18663 35C2.5672 35 2.8883 34.8692 3.14993 34.6076C3.41158 34.3459 3.5424 34.0307 3.5424 33.6621V23.7436C3.76835 23.6485 4.28866 23.485 5.10331 23.2532C5.91795 23.0212 6.97936 22.9052 8.28755 22.9052C9.94063 22.9052 11.4659 23.0687 12.8632 23.3958C14.2606 23.7228 15.6134 24.0974 16.9216 24.5196C18.2298 24.9418 19.5618 25.3165 20.9176 25.6436C22.2733 25.9706 23.7361 26.1341 25.3059 26.1341C26.2336 26.1341 26.9947 26.1014 27.5892 26.036C28.1839 25.9706 28.7012 25.8695 29.1412 25.7327C29.5813 25.596 30.0274 25.4265 30.4793 25.2244C31.0977 24.9508 31.5912 24.5673 31.9598 24.0737C32.3286 23.5801 32.513 22.9231 32.513 22.1025V3.99593C32.513 3.50834 32.3345 3.13372 31.9777 2.87207C31.6209 2.61044 31.1809 2.47962 30.6576 2.47962C30.2176 2.47962 29.5605 2.60449 28.6864 2.85424C27.8122 3.10398 26.6081 3.22884 25.074 3.22884C23.5042 3.22884 22.0413 3.06532 20.6856 2.73828C19.3298 2.41123 17.9979 2.03364 16.6897 1.60551C15.3815 1.17737 14.0287 0.802753 12.6313 0.481653C11.234 0.160551 9.70873 0 8.05565 0C7.12803 0 6.36393 0.0327048 5.76335 0.0981143C5.16277 0.163524 4.64246 0.264612 4.20243 0.401376C3.76241 0.538142 3.31644 0.707612 2.86451 0.909786C2.25799 1.18332 1.76742 1.56686 1.3928 2.06041C1.01818 2.55395 0.830872 3.20507 0.830872 4.01376V33.6621C0.830872 34.0189 0.964664 34.3311 1.23225 34.5987C1.49983 34.8662 1.81796 35 2.18663 35Z" fill="url(#paint0_radial_48_278)"/>
<defs>
<radialGradient id="paint0_radial_48_278" cx="0" cy="0" r="1" gradientUnits="userSpaceOnUse" gradientTransform="translate(16.6719 17.5) rotate(90) scale(32.5 29.4191)">
<stop stop-color="white"/>
<stop offset="1" stop-color="#2F2F2F"/>
</radialGradient>
</defs>
</svg>
