<svg width="35" height="35" viewBox="0 0 35 35" fill="none" xmlns="http://www.w3.org/2000/svg">
<path d="M9.57458 25.35C11.384 27.1593 13.2938 28.7928 15.3042 30.2505C17.3147 31.708 19.3251 32.8639 21.3355 33.7183C23.3459 34.5728 25.2495 35 27.0463 35C28.2651 35 29.4022 34.7801 30.4576 34.3403C31.5132 33.9005 32.4682 33.2095 33.3225 32.2671C33.8251 31.7143 34.2209 31.1205 34.51 30.4859C34.799 29.8515 34.9435 29.2138 34.9435 28.5729C34.9435 28.0954 34.8492 27.64 34.6608 27.2065C34.4723 26.773 34.1518 26.3992 33.6994 26.0852L27.9133 21.9762C27.4735 21.6747 27.0651 21.4486 26.6881 21.2978C26.3113 21.147 25.9532 21.0716 25.6139 21.0716C25.1867 21.0716 24.7721 21.1879 24.37 21.4204C23.9679 21.6527 23.5533 21.9826 23.126 22.4099L21.7879 23.729C21.5994 23.9301 21.3607 24.0307 21.0717 24.0307C20.9209 24.0307 20.7795 24.0055 20.6475 23.9552C20.5156 23.905 20.4056 23.8611 20.3176 23.8234C19.7272 23.5092 18.9733 22.9657 18.056 22.1929C17.1387 21.4203 16.2152 20.5691 15.2854 19.6392C14.3681 18.7093 13.52 17.7858 12.741 16.8686C11.9619 15.9514 11.4216 15.2037 11.1201 14.6257C11.0698 14.5252 11.0227 14.409 10.9787 14.2771C10.9348 14.1451 10.9128 14.01 10.9128 13.8718C10.9128 13.5954 11.007 13.3629 11.1955 13.1745L12.5336 11.7986C12.9483 11.3714 13.275 10.9567 13.5137 10.5547C13.7525 10.1526 13.8718 9.73793 13.8718 9.3107C13.8718 8.97145 13.7933 8.61335 13.6362 8.23639C13.4792 7.85944 13.2436 7.45108 12.9295 7.01131L8.87722 1.30048C8.55052 0.848139 8.161 0.518308 7.70866 0.310986C7.25633 0.103662 6.77885 0 6.27624 0C4.98204 0 3.76952 0.546577 2.63867 1.63973C1.72142 2.51929 1.05232 3.48995 0.631393 4.55169C0.210464 5.61344 0 6.74744 0 7.95369C0 9.76306 0.42093 11.6635 1.26279 13.6551C2.10464 15.6466 3.24806 17.6413 4.69305 19.6392C6.13804 21.637 7.76521 23.5406 9.57458 25.35Z" fill="url(#paint0_radial_48_241)"/>
<defs>
<radialGradient id="paint0_radial_48_241" cx="0" cy="0" r="1" gradientUnits="userSpaceOnUse" gradientTransform="translate(17.4717 17.5) rotate(90) scale(32.5 32.4475)">
<stop stop-color="white"/>
<stop offset="1" stop-color="#2F2F2F"/>
</radialGradient>
</defs>
</svg>
