<svg width="25" height="25" viewBox="0 0 25 25" fill="none" xmlns="http://www.w3.org/2000/svg">
<mask id="path-1-inside-1_11_941" fill="white">
<path d="M18.75 13.75H13.75V18.75H11.25V13.75H6.25V11.25H11.25V6.25H13.75V11.25H18.75M12.5 0C10.8585 0 9.23303 0.323322 7.71646 0.951506C6.19989 1.57969 4.8219 2.50043 3.66117 3.66117C1.31696 6.00537 0 9.18479 0 12.5C0 15.8152 1.31696 18.9946 3.66117 21.3388C4.8219 22.4996 6.19989 23.4203 7.71646 24.0485C9.23303 24.6767 10.8585 25 12.5 25C15.8152 25 18.9946 23.683 21.3388 21.3388C23.683 18.9946 25 15.8152 25 12.5C25 10.8585 24.6767 9.23303 24.0485 7.71646C23.4203 6.19989 22.4996 4.8219 21.3388 3.66117C20.1781 2.50043 18.8001 1.57969 17.2835 0.951506C15.767 0.323322 14.1415 0 12.5 0Z"/>
</mask>
<path d="M18.75 13.75H13.75V18.75H11.25V13.75H6.25V11.25H11.25V6.25H13.75V11.25H18.75M12.5 0C10.8585 0 9.23303 0.323322 7.71646 0.951506C6.19989 1.57969 4.8219 2.50043 3.66117 3.66117C1.31696 6.00537 0 9.18479 0 12.5C0 15.8152 1.31696 18.9946 3.66117 21.3388C4.8219 22.4996 6.19989 23.4203 7.71646 24.0485C9.23303 24.6767 10.8585 25 12.5 25C15.8152 25 18.9946 23.683 21.3388 21.3388C23.683 18.9946 25 15.8152 25 12.5C25 10.8585 24.6767 9.23303 24.0485 7.71646C23.4203 6.19989 22.4996 4.8219 21.3388 3.66117C20.1781 2.50043 18.8001 1.57969 17.2835 0.951506C15.767 0.323322 14.1415 0 12.5 0Z" fill="url(#paint0_linear_11_941)" fill-opacity="0.87"/>
<path d="M13.75 13.75V12.75H12.75V13.75H13.75ZM13.75 18.75V19.75H14.75V18.75H13.75ZM11.25 18.75H10.25V19.75H11.25V18.75ZM11.25 13.75H12.25V12.75H11.25V13.75ZM6.25 13.75H5.25V14.75H6.25V13.75ZM6.25 11.25V10.25H5.25V11.25H6.25ZM11.25 11.25V12.25H12.25V11.25H11.25ZM11.25 6.25V5.25H10.25V6.25H11.25ZM13.75 6.25H14.75V5.25H13.75V6.25ZM13.75 11.25H12.75V12.25H13.75V11.25ZM0 12.5H-1H0ZM12.5 25V26V25ZM18.75 12.75H13.75V14.75H18.75V12.75ZM12.75 13.75V18.75H14.75V13.75H12.75ZM13.75 17.75H11.25V19.75H13.75V17.75ZM12.25 18.75V13.75H10.25V18.75H12.25ZM11.25 12.75H6.25V14.75H11.25V12.75ZM7.25 13.75V11.25H5.25V13.75H7.25ZM6.25 12.25H11.25V10.25H6.25V12.25ZM12.25 11.25V6.25H10.25V11.25H12.25ZM11.25 7.25H13.75V5.25H11.25V7.25ZM12.75 6.25V11.25H14.75V6.25H12.75ZM13.75 12.25H18.75V10.25H13.75V12.25ZM12.5 -1C10.7272 -1 8.97167 -0.650812 7.33377 0.0276265L8.09914 1.87539C9.49438 1.29746 10.9898 1 12.5 1V-1ZM7.33377 0.0276265C5.69588 0.706065 4.20765 1.70047 2.95406 2.95406L4.36827 4.36827C5.43615 3.3004 6.7039 2.45331 8.09914 1.87539L7.33377 0.0276265ZM2.95406 2.95406C0.422317 5.4858 -1 8.91958 -1 12.5H1C1 9.45001 2.2116 6.52494 4.36827 4.36827L2.95406 2.95406ZM-1 12.5C-1 16.0804 0.422317 19.5142 2.95406 22.0459L4.36827 20.6317C2.2116 18.4751 1 15.55 1 12.5H-1ZM2.95406 22.0459C4.20765 23.2995 5.69588 24.2939 7.33377 24.9724L8.09914 23.1246C6.7039 22.5467 5.43615 21.6996 4.36827 20.6317L2.95406 22.0459ZM7.33377 24.9724C8.97167 25.6508 10.7272 26 12.5 26V24C10.9898 24 9.49438 23.7025 8.09914 23.1246L7.33377 24.9724ZM12.5 26C16.0804 26 19.5142 24.5777 22.0459 22.0459L20.6317 20.6317C18.4751 22.7884 15.55 24 12.5 24V26ZM22.0459 22.0459C24.5777 19.5142 26 16.0804 26 12.5H24C24 15.55 22.7884 18.4751 20.6317 20.6317L22.0459 22.0459ZM26 12.5C26 10.7272 25.6508 8.97167 24.9724 7.33377L23.1246 8.09914C23.7025 9.49438 24 10.9898 24 12.5H26ZM24.9724 7.33377C24.2939 5.69588 23.2995 4.20765 22.0459 2.95406L20.6317 4.36827C21.6996 5.43615 22.5467 6.7039 23.1246 8.09914L24.9724 7.33377ZM22.0459 2.95406C20.7924 1.70047 19.3041 0.706065 17.6662 0.0276265L16.9009 1.87539C18.2961 2.45331 19.5639 3.3004 20.6317 4.36827L22.0459 2.95406ZM17.6662 0.0276265C16.0283 -0.650812 14.2728 -1 12.5 -1V1C14.0102 1 15.5056 1.29746 16.9009 1.87539L17.6662 0.0276265Z" fill="black" fill-opacity="0.09" mask="url(#path-1-inside-1_11_941)"/>
<defs>
<linearGradient id="paint0_linear_11_941" x1="12.5" y1="0" x2="12.5" y2="37.5" gradientUnits="userSpaceOnUse">
<stop stop-color="#FFF388"/>
<stop offset="1" stop-color="#FFF388" stop-opacity="0"/>
</linearGradient>
</defs>
</svg>
